<svg xmlns="http://www.w3.org/2000/svg" viewBox="0 0 64.8 68.81"><defs><style>.cls-1{fill:#fff;}</style></defs><title>Ресурс 5</title><g id="Слой_2" data-name="Слой 2"><g id="Layer_1" data-name="Layer 1"><path class="cls-1" d="M28.77,16.57a15.8,15.8,0,0,1,8.68,1.66,15.82,15.82,0,0,1,8.47,11.93,33.16,33.16,0,0,1-4,1.75,12.69,12.69,0,0,1-2,.56c-.84.17-1.67.39-2.51.56-1.44.39-2.92.62-4.39.87-.87,0-1.74.22-2.61.18A21.67,21.67,0,0,1,27,33.87a22,22,0,0,1-12.09-5.22,2.81,2.81,0,0,1,.2-1,16,16,0,0,1,5.28-7.74A15.75,15.75,0,0,1,28.77,16.57Z"/><path class="cls-1" d="M56.14,25.67a4.58,4.58,0,0,1,1.15-.27c0,.32.13.75-.19,1-1,.75-2.09,1.26-3,2a2,2,0,0,0-.63.73,6.16,6.16,0,0,0-.26,1.11c-.17,1-.39,2-.54,3-.34,0-.69,0-1,0,0-1.1-.09-2.2-.05-3.31-1.43.34-2.46,1.56-3.88,1.91-.45.07-.75-.33-1.06-.58,1-.72,2.18-1,3.09-1.81a2.63,2.63,0,0,0,.46-.54,8.29,8.29,0,0,0-1.77-.42c.15-.25.3-.57.62-.63,1.1-.21,2.24,0,3.34-.19C53.75,27.26,54.8,26.18,56.14,25.67Z"/><path class="cls-1" d="M14.51,30.66a4.32,4.32,0,0,1,.75.73,14.24,14.24,0,0,0,1.48,1.32,15.66,15.66,0,0,0,7.77,3.52,34.94,34.94,0,0,0,7,.21c.54,0,1.09-.12,1.63-.2a44.62,44.62,0,0,0,11.22-3.46,15.14,15.14,0,0,1,1.73-.68,2.58,2.58,0,0,1-.72.89,10.43,10.43,0,0,1-2.14,1.38,39.31,39.31,0,0,1-11.78,4.29,32.39,32.39,0,0,1-5.28.55A26.51,26.51,0,0,1,18,38a5.83,5.83,0,0,1-2.64-1.25,1.73,1.73,0,0,1-.51-.82A16,16,0,0,1,14.51,30.66Z"/><path class="cls-1" d="M42.61,36.84c1.09-.53,2.15-1.08,3.18-1.7a15.5,15.5,0,0,1-4.32,8.31,15.77,15.77,0,0,1-19.86,2.11,16,16,0,0,1-4.82-4.94,4.31,4.31,0,0,1-.5-.95,13.64,13.64,0,0,0,1.78.45c1,.13,2,.42,3,.52s1.85.28,2.79.31a35.42,35.42,0,0,0,4,.06,5.67,5.67,0,0,0,1.08-.12c.35-.06.71,0,1.07-.06a49.24,49.24,0,0,0,5.89-1.22c1.19-.42,2.4-.81,3.56-1.34S41.58,37.39,42.61,36.84Z"/><path class="cls-1" d="M30.09.14a2.36,2.36,0,0,1,1.79.07c3.24,2.42,6.81,4.33,10.19,6.54,2.87,1.9,5.84,3.66,8.59,5.74a1.45,1.45,0,0,1,.6,1.32c-1.82,1.58-3.36,3.48-5.14,5.1a15.12,15.12,0,0,1-3.81,3,4.07,4.07,0,0,1-1.22-.45c-1.75-.91-3.74-1-5.64-1.39a37.59,37.59,0,0,0-7.12-.28c-1.78.18-3.54.49-5.31.77S20,22.09,18.27,22a20.78,20.78,0,0,0-1.8-2.05C15.73,19.18,15.1,18.21,14,18c.06,2.5,0,5,0,7.51.47,1.57,1.24,3,1.74,4.61.23,1.62-.83,3-1.7,4.28a1,1,0,0,1-1.73-.12c-.87-1.19-1.78-2.62-1.6-4.17.51-1.56,1.27-3.05,1.79-4.6.07-2.87,0-5.74,0-8.61.16-1.5-1.62-2.15-1.87-3.48-.12-.59.4-1,.8-1.3C17.56,7.89,24,4.26,30.09.14Zm-2,3.41C23,6.77,17.85,10,12.81,13.33a4.91,4.91,0,0,0,1,1.43c1.26,1.23,2.46,2.52,3.69,3.78a1.76,1.76,0,0,0,1.18.48,15,15,0,0,1-.18-3.66A3.27,3.27,0,0,1,20.27,14,27,27,0,0,1,26,12.24a31,31,0,0,1,6.31-.31,22.18,22.18,0,0,1,7,1.27A9.93,9.93,0,0,1,43,15.06c.17,1.34,0,2.7.06,4,1.61-.58,2.5-2.2,3.69-3.34.65-.87,1.87-1.41,1.89-2.63-5.48-3.53-11-7-16.52-10.49A4.45,4.45,0,0,0,30.73,2,14.35,14.35,0,0,0,28.11,3.55ZM22.4,15a4.84,4.84,0,0,0-2,1.07,5.65,5.65,0,0,0-.09,3.5,45.88,45.88,0,0,1,6.77-1.37c1.74-.13,3.49,0,5.23-.07a36.34,36.34,0,0,1,9.07,1.42c0-1,.05-1.9,0-2.85.06-.61-.53-1-1-1.21a21.9,21.9,0,0,0-5.51-1.59,28.69,28.69,0,0,0-6.28-.27A27.47,27.47,0,0,0,22.4,15ZM12.62,30.23a2,2,0,0,0,.68,2c.4-.58,1.19-1.29.79-2.07C13.92,29.5,12.64,29.42,12.62,30.23Z"/><path class="cls-1" d="M7.9,58c-.1-.3-.2-.62-.32-.94l-.33-1H3.79l-.33,1L3.14,58H1.08c.33-1,.65-1.83.94-2.64s.6-1.57.88-2.28.57-1.39.85-2,.56-1.27.86-1.88H6.5c.29.61.57,1.24.86,1.88s.56,1.32.85,2,.58,1.47.88,2.28S9.7,57.05,10,58ZM5.51,51.16c0,.13-.11.31-.19.53s-.19.47-.3.76-.23.61-.36,1-.27.71-.41,1.1H6.77c-.13-.39-.26-.75-.39-1.1l-.36-1c-.11-.29-.21-.55-.3-.77Z"/><path class="cls-1" d="M15.49,54.44a2.62,2.62,0,0,0-.23-1.3.89.89,0,0,0-.81-.38l-.37,0-.37,0V58h-1.9V51.52c.16,0,.35-.09.57-.13l.68-.13q.38-.06.75-.09l.75,0a3.22,3.22,0,0,1,1.18.18,2.8,2.8,0,0,1,.75.44,3.58,3.58,0,0,1,.94-.46,3.27,3.27,0,0,1,1-.16,3.3,3.3,0,0,1,1.32.22,2,2,0,0,1,.83.63A2.58,2.58,0,0,1,21,53a6.84,6.84,0,0,1,.11,1.25V58h-1.9V54.44a2.73,2.73,0,0,0-.23-1.3.89.89,0,0,0-.81-.38,1.36,1.36,0,0,0-.43.08,1.45,1.45,0,0,0-.45.19,3.8,3.8,0,0,1,.11.62q0,.32,0,.69V58H15.49Z"/><path class="cls-1" d="M23.25,54.7a3.92,3.92,0,0,1,.28-1.56A3.28,3.28,0,0,1,24.25,52a3,3,0,0,1,1-.68,3.32,3.32,0,0,1,1.2-.23,3,3,0,0,1,2.26.88,3.61,3.61,0,0,1,.82,2.57c0,.11,0,.23,0,.36s0,.25,0,.35H25.2a1.3,1.3,0,0,0,.55.93,2.22,2.22,0,0,0,1.3.35,5.07,5.07,0,0,0,1-.1,3.75,3.75,0,0,0,.82-.23l.26,1.54a2.61,2.61,0,0,1-.41.15c-.17.05-.36.1-.57.14a6.39,6.39,0,0,1-.67.09,5.63,5.63,0,0,1-.71,0,4.21,4.21,0,0,1-1.58-.27,3.2,3.2,0,0,1-1.11-.73,3,3,0,0,1-.65-1.1A4.43,4.43,0,0,1,23.25,54.7ZM27.72,54a1.86,1.86,0,0,0-.09-.47,1.08,1.08,0,0,0-.58-.7,1.19,1.19,0,0,0-.56-.12,1.35,1.35,0,0,0-.55.11,1.1,1.1,0,0,0-.38.29,1.27,1.27,0,0,0-.23.41,2.85,2.85,0,0,0-.13.48Z"/><path class="cls-1" d="M35.83,53c-.17,0-.37-.09-.6-.14a4.23,4.23,0,0,0-.74-.07l-.43,0a3.1,3.1,0,0,0-.37.07V58h-1.9V51.65a12.2,12.2,0,0,1,1.2-.34,6.77,6.77,0,0,1,1.55-.16l.37,0,.44,0,.43.08a1.62,1.62,0,0,1,.37.11Z"/><path class="cls-1" d="M40,49.35a1.08,1.08,0,0,1-.34.83,1.22,1.22,0,0,1-1.6,0,1.07,1.07,0,0,1-.33-.83,1,1,0,0,1,.33-.82,1.22,1.22,0,0,1,1.6,0A1.05,1.05,0,0,1,40,49.35ZM39.84,58h-1.9V51.29h1.9Z"/><path class="cls-1" d="M42.07,54.65a3.87,3.87,0,0,1,.24-1.37A3.16,3.16,0,0,1,43,52.15a3.35,3.35,0,0,1,1.08-.76,3.73,3.73,0,0,1,1.46-.28,5,5,0,0,1,1,.1,4.39,4.39,0,0,1,.87.27L47,53a4.39,4.39,0,0,0-.58-.18,3.26,3.26,0,0,0-.72-.07,1.51,1.51,0,0,0-1.26.52,2.61,2.61,0,0,0,0,2.78,1.63,1.63,0,0,0,1.36.5,4,4,0,0,0,.74-.07,3.17,3.17,0,0,0,.72-.2l.27,1.56a4.7,4.7,0,0,1-.83.24,5.25,5.25,0,0,1-1.09.1A4.23,4.23,0,0,1,44,57.91a3.07,3.07,0,0,1-1.09-.75A2.92,2.92,0,0,1,42.27,56,4.76,4.76,0,0,1,42.07,54.65Z"/><path class="cls-1" d="M51.63,51.11a4.59,4.59,0,0,1,1.4.19,2.25,2.25,0,0,1,.9.55,2.17,2.17,0,0,1,.48.87,4.45,4.45,0,0,1,.14,1.14v4q-.4.09-1.14.21a11,11,0,0,1-1.76.12A6.07,6.07,0,0,1,50.47,58a2.5,2.5,0,0,1-.91-.38A1.69,1.69,0,0,1,49,57a2.46,2.46,0,0,1-.2-1,2,2,0,0,1,.23-1,1.81,1.81,0,0,1,.64-.65,2.77,2.77,0,0,1,.9-.35,5.22,5.22,0,0,1,1.06-.11,6.38,6.38,0,0,1,.66,0,2.2,2.2,0,0,1,.46.09v-.18a1,1,0,0,0-.29-.78,1.41,1.41,0,0,0-1-.29,6.2,6.2,0,0,0-1,.07,4,4,0,0,0-.81.19l-.25-1.53.42-.11.54-.1.62-.07A4.78,4.78,0,0,1,51.63,51.11Zm.15,5.57.53,0a3.13,3.13,0,0,0,.41,0V55.18l-.34,0a3.1,3.1,0,0,0-.42,0,4.12,4.12,0,0,0-.51,0,1.31,1.31,0,0,0-.41.12.73.73,0,0,0-.28.24.78.78,0,0,0,.2,1A1.58,1.58,0,0,0,51.78,56.68Z"/><path class="cls-1" d="M57,51.52a11.09,11.09,0,0,1,1.25-.26,10.29,10.29,0,0,1,1.6-.12,3.94,3.94,0,0,1,1.43.22,2.28,2.28,0,0,1,.9.63,2.66,2.66,0,0,1,.47,1,5.37,5.37,0,0,1,.14,1.25V58h-1.9V54.44a2.48,2.48,0,0,0-.25-1.3,1,1,0,0,0-.9-.38l-.44,0-.4,0V58H57Z"/><path class="cls-1" d="M0,68.63V59.79H6v1.67H2V63.2H5.52v1.63H2V67H6.26v1.67Z"/><path class="cls-1" d="M14.14,68.42a5.75,5.75,0,0,1-.59.14l-.7.13-.74.08-.72,0a4.29,4.29,0,0,1-1.48-.24,2.93,2.93,0,0,1-1.09-.7,3,3,0,0,1-.69-1.09,4.41,4.41,0,0,1-.23-1.45,5.19,5.19,0,0,1,.2-1.48,3.18,3.18,0,0,1,.59-1.11,2.42,2.42,0,0,1,.94-.7,3,3,0,0,1,1.27-.25,2.93,2.93,0,0,1,.7.08,3.47,3.47,0,0,1,.64.22V59l1.9-.31Zm-4.3-3.19a2.33,2.33,0,0,0,.39,1.41,1.38,1.38,0,0,0,1.18.54l.47,0,.36,0V63.66a1.59,1.59,0,0,0-.47-.19,2.32,2.32,0,0,0-.58-.08C10.29,63.39,9.84,64,9.84,65.23Z"/><path class="cls-1" d="M22.42,68.41a11.59,11.59,0,0,1-1.25.26,10.42,10.42,0,0,1-1.61.12,3.83,3.83,0,0,1-1.42-.23,2.1,2.1,0,0,1-.9-.65,2.57,2.57,0,0,1-.48-1,5.61,5.61,0,0,1-.14-1.27V61.92h1.91v3.51a2.76,2.76,0,0,0,.24,1.33,1,1,0,0,0,.9.41l.44,0,.41-.05V61.92h1.9Z"/><path class="cls-1" d="M24.65,65.28a4.1,4.1,0,0,1,.23-1.37A3.2,3.2,0,0,1,26.65,62a3.56,3.56,0,0,1,1.46-.29,5,5,0,0,1,1,.1,5.16,5.16,0,0,1,.87.27l-.4,1.52L29,63.45a3.11,3.11,0,0,0-.71-.07A1.51,1.51,0,0,0,27,63.9a2.61,2.61,0,0,0,0,2.78,1.63,1.63,0,0,0,1.36.5,5,5,0,0,0,.74-.06,3.18,3.18,0,0,0,.72-.21l.27,1.56a5,5,0,0,1-.83.24,5.35,5.35,0,0,1-1.1.1,4.18,4.18,0,0,1-1.58-.27,3,3,0,0,1-1.09-.75,2.88,2.88,0,0,1-.62-1.11A4.51,4.51,0,0,1,24.65,65.28Z"/><path class="cls-1" d="M34.21,61.74a4.32,4.32,0,0,1,1.4.2,2.14,2.14,0,0,1,.9.55,2.07,2.07,0,0,1,.48.86,4.45,4.45,0,0,1,.14,1.14v4c-.28.06-.65.13-1.14.21a11,11,0,0,1-1.76.12,5.38,5.38,0,0,1-1.18-.11,2.5,2.5,0,0,1-.91-.38,1.69,1.69,0,0,1-.59-.68,2.42,2.42,0,0,1-.2-1,2.05,2.05,0,0,1,.23-1,1.87,1.87,0,0,1,.63-.65,2.92,2.92,0,0,1,.91-.35,5.22,5.22,0,0,1,1.06-.11,6.38,6.38,0,0,1,.66,0,3.12,3.12,0,0,1,.46.09V64.4a1.09,1.09,0,0,0-.29-.78,1.46,1.46,0,0,0-1-.29,6.2,6.2,0,0,0-1,.07,4.14,4.14,0,0,0-.82.19L32,62.06c.11,0,.25-.07.42-.1s.34-.08.54-.11l.62-.07C33.77,61.76,34,61.74,34.21,61.74Zm.15,5.57.53,0a3.68,3.68,0,0,0,.41,0V65.81l-.34,0-.42,0a4.12,4.12,0,0,0-.51,0,1.31,1.31,0,0,0-.41.12.73.73,0,0,0-.28.24.69.69,0,0,0-.1.39.67.67,0,0,0,.3.62A1.7,1.7,0,0,0,34.36,67.31Z"/><path class="cls-1" d="M39.55,60.25l1.9-.3v2h2.29v1.59H41.45v2.36a1.86,1.86,0,0,0,.21.95.91.91,0,0,0,.85.36,3.44,3.44,0,0,0,.63-.06,3.27,3.27,0,0,0,.6-.16L44,68.44a4.84,4.84,0,0,1-.76.25,5,5,0,0,1-1,.1,3.39,3.39,0,0,1-1.28-.21A2,2,0,0,1,40.1,68a2.2,2.2,0,0,1-.43-.91,5.45,5.45,0,0,1-.12-1.19Z"/><path class="cls-1" d="M48.12,60a1.07,1.07,0,0,1-.33.83,1.19,1.19,0,0,1-.8.3,1.17,1.17,0,0,1-.8-.3,1.17,1.17,0,0,1,0-1.65,1.17,1.17,0,0,1,.8-.3,1.19,1.19,0,0,1,.8.3A1.06,1.06,0,0,1,48.12,60ZM48,68.63H46V61.92H48Z"/><path class="cls-1" d="M56.77,65.27a4.14,4.14,0,0,1-.23,1.44,3.09,3.09,0,0,1-.66,1.13,2.94,2.94,0,0,1-1,.72,3.47,3.47,0,0,1-1.36.25,3.4,3.4,0,0,1-1.34-.25,2.94,2.94,0,0,1-1-.72,3.28,3.28,0,0,1-.68-1.13,4.14,4.14,0,0,1-.24-1.44,4,4,0,0,1,.25-1.45A3.11,3.11,0,0,1,52.16,62a3.53,3.53,0,0,1,2.66,0,3.15,3.15,0,0,1,1,.71,3.43,3.43,0,0,1,.67,1.11A4.2,4.2,0,0,1,56.77,65.27Zm-1.94,0a2.37,2.37,0,0,0-.35-1.39,1.14,1.14,0,0,0-1-.5,1.19,1.19,0,0,0-1,.5,2.94,2.94,0,0,0,0,2.78,1.16,1.16,0,0,0,1,.52,1.12,1.12,0,0,0,1-.52A2.39,2.39,0,0,0,54.83,65.27Z"/><path class="cls-1" d="M59,62.15a11.09,11.09,0,0,1,1.25-.26,10.29,10.29,0,0,1,1.6-.12,3.94,3.94,0,0,1,1.43.22,2.08,2.08,0,0,1,.9.64,2.54,2.54,0,0,1,.47,1,5.46,5.46,0,0,1,.14,1.26v3.78H62.9V65.07a2.6,2.6,0,0,0-.24-1.3,1,1,0,0,0-.91-.38l-.43,0-.41,0v5.18H59Z"/></g></g></svg>